<svg width="24" height="19" viewBox="0 0 24 19" fill="none" xmlns="http://www.w3.org/2000/svg">
<path d="M12 0C6.54545 0 1.88727 3.93933 0 9.5C1.88727 15.0607 6.54545 19 12 19C17.4545 19 22.1127 15.0607 24 9.5C22.1127 3.93933 17.4545 0 12 0ZM12 15.8333C8.98909 15.8333 6.54545 12.996 6.54545 9.5C6.54545 6.004 8.98909 3.16667 12 3.16667C15.0109 3.16667 17.4545 6.004 17.4545 9.5C17.4545 12.996 15.0109 15.8333 12 15.8333ZM12 5.7C10.1891 5.7 8.72727 7.39733 8.72727 9.5C8.72727 11.6027 10.1891 13.3 12 13.3C13.8109 13.3 15.2727 11.6027 15.2727 9.5C15.2727 7.39733 13.8109 5.7 12 5.7Z" fill="#C1BFBD"/>
</svg>
