<svg width="24" height="24" viewBox="0 0 24 24" fill="none" xmlns="http://www.w3.org/2000/svg">
<path d="M13.3946 4.31832C12.9367 4.26006 12.4715 4.22668 12 4.21837C9.93951 4.22912 7.80355 4.81875 5.78174 5.94856C4.28058 6.82198 2.81828 8.05504 1.54834 9.57604C0.924641 10.3525 0.12862 11.4767 0 12.6762C0.0152 13.7153 0.963061 14.9978 1.54834 15.7764C2.7392 17.2377 4.16342 18.4354 5.78174 19.4039C5.83674 19.4353 5.89194 19.4663 5.94727 19.4969L4.44582 22.5816L6.48593 24L17.5143 1.4119L15.5505 0L13.3946 4.31832ZM18.0513 5.85894L16.5527 8.91428C17.2421 9.96793 17.6514 11.2673 17.6514 12.6762C17.6514 16.188 15.1209 19.0351 11.9985 19.0351C11.8636 19.0351 11.7327 19.018 11.6001 19.0075L10.6084 21.0272C11.0657 21.0848 11.5282 21.1268 12 21.134C14.0625 21.1232 16.1972 20.5267 18.2168 19.4039C19.718 18.5305 21.1817 17.2974 22.4517 15.7764C23.0754 15 23.8714 13.8757 24 12.6762C23.9848 11.6372 23.0369 10.3547 22.4517 9.57601C21.2608 8.11476 19.8351 6.91699 18.2168 5.94851C18.1622 5.91736 18.1063 5.88934 18.0513 5.85894ZM11.9986 6.31735C12.1355 6.31735 12.2713 6.32379 12.4058 6.33457L11.2441 8.70061C9.61387 9.08945 8.39063 10.7212 8.39063 12.6745C8.39063 13.1652 8.46745 13.6349 8.60889 14.0703V14.0721L7.44433 16.445C6.75331 15.3904 6.34569 14.0868 6.34569 12.6762C6.34571 9.16443 8.87617 6.31732 11.9986 6.31735ZM15.3779 11.3062L12.7603 16.6415C14.3818 16.2453 15.5962 14.621 15.5962 12.6745C15.5962 12.1928 15.5145 11.7348 15.3779 11.3062Z" fill="#C1BFBD"/>
</svg>
