<svg width="17" height="19" viewBox="0 0 17 19" fill="none" xmlns="http://www.w3.org/2000/svg">
<path d="M5.875 8.625H4.125V10.375H5.875V8.625ZM9.375 8.625H7.625V10.375H9.375V8.625ZM12.875 8.625H11.125V10.375H12.875V8.625ZM14.625 2.5H13.75V0.75H12V2.5H5V0.75H3.25V2.5H2.375C1.40375 2.5 0.63375 3.2875 0.63375 4.25L0.625 16.5C0.625 17.4625 1.40375 18.25 2.375 18.25H14.625C15.5875 18.25 16.375 17.4625 16.375 16.5V4.25C16.375 3.2875 15.5875 2.5 14.625 2.5ZM14.625 16.5H2.375V6.875H14.625V16.5Z" fill="#3A57E8"/>
</svg>
