<svg width="21" height="23" viewBox="0 0 21 23" fill="none" xmlns="http://www.w3.org/2000/svg">
<path d="M7.0504 14.6756C7.04966 14.6748 7.04929 14.6743 7.04929 14.6743M19.7933 19.2541V21.8946H1.90234V19.2541C1.90234 18.4225 2.4624 17.4858 3.514 16.6168C4.49768 15.8038 5.80498 15.1436 7.11002 14.7808C7.11602 14.793 7.12233 14.8064 7.12907 14.8209C7.14354 14.8521 7.1578 14.8843 7.17395 14.9207L7.1759 14.9251C7.19074 14.9586 7.20779 14.9972 7.22494 15.0341L7.37291 15.3525H7.69058H9.82902C10.3139 15.3524 10.5505 15.3524 10.7899 15.3525C11.0239 15.3525 11.2606 15.3526 11.7345 15.3525H13.8731H14.1907L14.3387 15.0341C14.3811 14.9429 14.4483 14.8324 14.5128 14.7622C14.5131 14.7618 14.5134 14.7615 14.5137 14.7612C15.8425 15.1194 17.1799 15.7889 18.1816 16.6168C19.2332 17.4858 19.7933 18.4225 19.7933 19.2541Z" stroke="#3A57E8" stroke-width="2"/>
<path fill-rule="evenodd" clip-rule="evenodd" d="M6.63818 19.5193C6.92149 19.5193 7.16438 19.2568 7.16438 18.9145C7.16438 18.5723 6.92149 18.3097 6.63818 18.3097C6.35487 18.3097 6.11198 18.5723 6.11198 18.9145C6.11198 19.2568 6.35487 19.5193 6.63818 19.5193ZM6.63818 20.7026C7.51005 20.7026 8.21679 19.9021 8.21679 18.9145C8.21679 17.927 7.51005 17.1265 6.63818 17.1265C5.76631 17.1265 5.05957 17.927 5.05957 18.9145C5.05957 19.9021 5.76631 20.7026 6.63818 20.7026Z" fill="#3A57E8"/>
<path d="M15.0575 20.1063H14.0051V18.9142L14.5313 17.7222H16.6361L17.1623 18.9142V20.1063H16.1099" stroke="#3A57E8" stroke-linejoin="round"/>
<path d="M15.5835 17.7226C15.8466 17.3253 16.1097 15.6365 15.8466 15.0405" stroke="#3A57E8"/>
<path d="M6.48414 17.7226C6.22104 17.3253 5.95794 15.6365 6.22104 15.0405" stroke="#3A57E8"/>
<path d="M5.05957 9.65429C5.05957 12.2808 9.26393 12.9543 9.26393 12.9543C9.26393 12.9543 6.51384 7.86957 7.95369 6.99407C9.39354 6.11858 12.9277 4.59991 13.2157 5.20601C15.865 9.51619 12.7196 12.9543 12.7196 12.9543C12.7196 12.9543 16.636 12.5502 16.636 9.65429C16.636 6.75835 14.793 3.41795 14.793 3.41795C14.793 3.41795 13.4683 1.62988 10.8766 1.62988C8.28488 1.62988 7.36334 3.41795 7.36334 3.41795C7.36334 3.41795 5.05957 7.02775 5.05957 9.65429Z" stroke="#3A57E8" stroke-width="2" stroke-linejoin="round"/>
</svg>
