<svg width="21" height="20" viewBox="0 0 21 20" fill="none" xmlns="http://www.w3.org/2000/svg">
<path d="M10.2415 0C4.58254 0 0 4.44932 0 9.93151C0 15.4137 4.58254 19.863 10.2415 19.863C15.9108 19.863 20.5035 15.4137 20.5035 9.93151C20.5035 4.44932 15.9108 0 10.2415 0ZM10.2518 17.8767C5.72049 17.8767 2.05035 14.3212 2.05035 9.93151C2.05035 5.54178 5.72049 1.9863 10.2518 1.9863C14.7831 1.9863 18.4532 5.54178 18.4532 9.93151C18.4532 14.3212 14.7831 17.8767 10.2518 17.8767Z" fill="#3A57E8"/>
<path d="M10.8879 4.29053H9.3501V10.2494L14.7323 13.3779L15.5012 12.1563L10.8879 9.50457V4.29053Z" fill="#3A57E8"/>
</svg>
