<svg width="21" height="20" viewBox="0 0 21 20" fill="none" xmlns="http://www.w3.org/2000/svg">
<path d="M9.85328 2.56152H11.8412M17.8048 9.84919C17.1418 15.4014 15.4859 18.178 12.8351 18.178H8.85935C6.20851 18.178 4.55261 15.4014 3.88965 9.84919" stroke="#3A57E8" stroke-width="2" stroke-linecap="round" stroke-linejoin="round"/>
<path d="M10.8473 16.0958V18.178M8.85944 8.80818V8.81859M12.8352 8.80818V8.81859M9.85338 14.0137C9.85338 14.7081 10.1844 15.0548 10.8473 15.0548C11.5103 15.0548 11.8413 14.7081 11.8413 14.0137H9.85338ZM3.88975 1.52051L9.85338 2.53037L3.65319 9.49322C3.47902 9.69827 3.23588 9.82481 2.97466 9.84635C2.71344 9.86789 2.45439 9.78276 2.25173 9.60878C2.11429 9.49164 2.01097 9.33647 1.95352 9.1609C1.89607 8.98533 1.88678 8.7964 1.92672 8.61558L3.88975 1.52051ZM17.8049 1.52051L11.8413 2.53037L18.0415 9.49322C18.3973 9.91799 19.0245 9.97004 19.4429 9.60878C19.5804 9.49164 19.6837 9.33647 19.7411 9.1609C19.7986 8.98533 19.8079 8.7964 19.7679 8.61558L17.8049 1.52051Z" stroke="#3A57E8" stroke-width="2" stroke-linecap="round" stroke-linejoin="round"/>
</svg>
